<svg id="SvgjsSvg1127" width="1338.4750213623047" height="649.1999816894531" xmlns="http://www.w3.org/2000/svg" version="1.1" xmlns:xlink="http://www.w3.org/1999/xlink" xmlns:svgjs="http://svgjs.com/svgjs"><defs id="SvgjsDefs1128"><marker id="SvgjsMarker1162" markerWidth="14" markerHeight="10" refX="10" refY="5" viewBox="0 0 14 10" orient="auto" markerUnits="userSpaceOnUse" stroke-dasharray="0,0"><path id="SvgjsPath1163" d="M0,0 L14,5 L0,10 L0,0" fill="#323232" stroke="#323232" stroke-width="1"></path></marker><marker id="SvgjsMarker1170" markerWidth="14" markerHeight="10" refX="10" refY="5" viewBox="0 0 14 10" orient="auto" markerUnits="userSpaceOnUse" stroke-dasharray="0,0"><path id="SvgjsPath1171" d="M0,0 L14,5 L0,10 L0,0" fill="#323232" stroke="#323232" stroke-width="1"></path></marker><marker id="SvgjsMarker1174" markerWidth="14" markerHeight="10" refX="10" refY="5" viewBox="0 0 14 10" orient="auto" markerUnits="userSpaceOnUse" stroke-dasharray="0,0"><path id="SvgjsPath1175" d="M0,0 L14,5 L0,10 L0,0" fill="#323232" stroke="#323232" stroke-width="1"></path></marker><marker id="SvgjsMarker1182" markerWidth="14" markerHeight="10" refX="10" refY="5" viewBox="0 0 14 10" orient="auto" markerUnits="userSpaceOnUse" stroke-dasharray="0,0"><path id="SvgjsPath1183" d="M0,0 L14,5 L0,10 L0,0" fill="#323232" stroke="#323232" stroke-width="1"></path></marker></defs><rect id="svgbackgroundid" width="1338.4750213623047" height="649.1999816894531" fill="#9e9e9e"></rect><g id="SvgjsG1130" transform="translate(25.012496948242188,474.2666455904641)"><path id="SvgjsPath1131" d="M 41.75925939171403 0L 166.77613978659426 0C 222.45515230887963 0 222.45515230887963 125.27777817514209 166.77613978659426 125.27777817514209L 41.75925939171403 125.27777817514209C -13.919753130571344 125.27777817514209 -13.919753130571344 0 41.75925939171403 0Z" stroke="rgba(50,50,50,1)" stroke-width="2" fill-opacity="1" fill="#ffffff"></path><g id="SvgjsG1132"><text id="SvgjsText1133" font-family="微软雅黑" text-anchor="middle" font-size="25px" width="189px" fill="#323232" font-weight="700" align="middle" lineHeight="125%" anchor="middle" family="微软雅黑" size="25px" weight="700" font-style="italic" opacity="1" y="41.013889087571044" transform="rotate(0)"><tspan id="SvgjsTspan1134" dy="31" x="104.5"><tspan id="SvgjsTspan1135" style="text-decoration:underline;">start</tspan></tspan></text></g></g><g id="SvgjsG1136" transform="translate(702.7525442777442,24.999977111816406)"><path id="SvgjsPath1137" d="M 31.280309876746244 0L 179.30391760410848 0C 216.50762142581735 0 216.50762142581735 175.3888894451989 179.30391760410848 175.3888894451989L 31.280309876746244 175.3888894451989C -10.426769958915415 175.3888894451989 -10.426769958915415 0 31.280309876746244 0ZM 179.30391760410848 0C 142.7645656363587 0 142.7645656363587 175.3888894451989 179.30391760410848 175.3888894451989C 142.7645656363587 175.3888894451989 142.7645656363587 0 179.30391760410848 0" stroke="rgba(50,50,50,1)" stroke-width="2" fill-opacity="1" fill="#0d47a1"></path><g id="SvgjsG1138"><text id="SvgjsText1139" font-family="微软雅黑" text-anchor="middle" font-size="25px" width="167px" fill="#323232" font-weight="700" align="middle" lineHeight="125%" anchor="middle" family="微软雅黑" size="25px" weight="700" font-style="italic" opacity="1" y="66.06944472259946" transform="rotate(0)"><tspan id="SvgjsTspan1140" dy="31" x="83.5"><tspan id="SvgjsTspan1141" style="text-decoration:underline;">历史数据</tspan></tspan></text></g></g><g id="SvgjsG1142" transform="translate(313.87670180609086,449.2110899554357)"><path id="SvgjsPath1143" d="M 31.280309876746244 0L 179.30391760410848 0C 216.50762142581735 0 216.50762142581735 175.3888894451989 179.30391760410848 175.3888894451989L 31.280309876746244 175.3888894451989C -10.426769958915415 175.3888894451989 -10.426769958915415 0 31.280309876746244 0ZM 179.30391760410848 0C 142.7645656363587 0 142.7645656363587 175.3888894451989 179.30391760410848 175.3888894451989C 142.7645656363587 175.3888894451989 142.7645656363587 0 179.30391760410848 0" stroke="rgba(50,50,50,1)" stroke-width="2" fill-opacity="1" fill="#64b5f6"></path><g id="SvgjsG1144"><text id="SvgjsText1145" font-family="微软雅黑" text-anchor="middle" font-size="25px" width="167px" fill="#323232" font-weight="400" align="middle" lineHeight="125%" anchor="middle" family="微软雅黑" size="25px" weight="400" font-style="" opacity="1" y="66.06944472259946" transform="rotate(0)"><tspan id="SvgjsTspan1146" dy="31" x="83.5"><tspan id="SvgjsTspan1147" style="text-decoration:;">新的数据</tspan></tspan></text></g></g><g id="SvgjsG1148" transform="translate(702.7525442777442,449.2110899554359)"><path id="SvgjsPath1149" d="M 0 0L 208.5353991783083 0L 208.5353991783083 175.3888894451989L 0 175.3888894451989Z" stroke="rgba(50,50,50,1)" stroke-width="2" fill-opacity="1" fill="#1b5e20"></path><g id="SvgjsG1150"><text id="SvgjsText1151" font-family="微软雅黑" text-anchor="middle" font-size="25px" width="189px" fill="#323232" font-weight="400" align="middle" lineHeight="125%" anchor="middle" family="微软雅黑" size="25px" weight="400" font-style="" opacity="1" y="66.06944472259946" transform="rotate(0)"><tspan id="SvgjsTspan1152" dy="31" x="104.5"><tspan id="SvgjsTspan1153" style="text-decoration:;">模型</tspan></tspan></text></g></g><g id="SvgjsG1154" transform="translate(1105.4770977699338,449.2110899554359)"><path id="SvgjsPath1155" d="M 58.46296314839964 0L 208.5353991783083 0L 150.07243602990866 175.3888894451989L 0 175.3888894451989L 58.46296314839964 0Z" stroke="rgba(50,50,50,1)" stroke-width="2" fill-opacity="1" fill="#fff176"></path><g id="SvgjsG1156"><text id="SvgjsText1157" font-family="微软雅黑" text-anchor="middle" font-size="25px" width="146px" fill="#323232" font-weight="400" align="middle" lineHeight="125%" anchor="middle" family="微软雅黑" size="25px" weight="400" font-style="" opacity="1" y="66.06944472259946" transform="rotate(0)"><tspan id="SvgjsTspan1158" dy="31" x="104.28030987674624"><tspan id="SvgjsTspan1159" style="text-decoration:;">未知属性</tspan></tspan></text></g></g><g id="SvgjsG1160"><path id="SvgjsPath1161" d="M807.0202438668983 201.38886655701526L807.0202438668983 324.7999782562256L807.0202438668983 324.7999782562256L807.0202438668983 445.6110899554359" stroke="#323232" stroke-width="2" fill="none" marker-end="url(#SvgjsMarker1162)"></path><rect id="SvgjsRect1164" width="50" height="31" x="782.0202438668983" y="307.9999782562256" fill="#ffffff"></rect><text id="SvgjsText1165" font-family="微软雅黑" text-anchor="middle" font-size="25px" width="50px" fill="#323232" font-weight="700" align="top" lineHeight="31px" anchor="middle" family="微软雅黑" size="25px" weight="700" font-style="italic" opacity="1" y="301.8749782562256" transform="rotate(0)"><tspan id="SvgjsTspan1166" dy="31" x="807.0202438668983"><tspan id="SvgjsTspan1167" style="text-decoration:underline;">训练</tspan></tspan></text></g><g id="SvgjsG1168"><path id="SvgjsPath1169" d="M234.54789612655054 536.9055346780351L273.7122989663207 536.9055346780351L273.7122989663207 536.9055346780352L310.27670180609084 536.9055346780352" stroke="#323232" stroke-width="2" fill="none" marker-end="url(#SvgjsMarker1170)"></path></g><g id="SvgjsG1172"><path id="SvgjsPath1173" d="M523.4121009843992 536.9055346780352L612.5823226310717 536.9055346780352L612.5823226310717 536.9055346780355L699.1525442777441 536.9055346780355" stroke="#323232" stroke-width="2" fill="none" marker-end="url(#SvgjsMarker1174)"></path><rect id="SvgjsRect1176" width="50" height="31" x="586.2823226310718" y="521.4055346780352" fill="#ffffff"></rect><text id="SvgjsText1177" font-family="微软雅黑" text-anchor="middle" font-size="25px" width="50px" fill="#323232" font-weight="700" align="top" lineHeight="31px" anchor="middle" family="微软雅黑" size="25px" weight="700" font-style="italic" opacity="1" y="515.2805346780352" transform="rotate(0)"><tspan id="SvgjsTspan1178" dy="31" x="611.2823226310718"><tspan id="SvgjsTspan1179" style="text-decoration:underline;">输入</tspan></tspan></text></g><g id="SvgjsG1180"><path id="SvgjsPath1181" d="M912.2879434560524 536.9055346780355L1020.5470855650613 536.9055346780355L1020.5470855650613 536.9055346780355L1126.20622767407 536.9055346780355" stroke="#323232" stroke-width="2" fill="none" marker-end="url(#SvgjsMarker1182)"></path><rect id="SvgjsRect1184" width="50" height="31" x="994.2470855650612" y="521.4055346780355" fill="#ffffff"></rect><text id="SvgjsText1185" font-family="微软雅黑" text-anchor="middle" font-size="25px" width="50px" fill="#323232" font-weight="700" align="top" lineHeight="31px" anchor="middle" family="微软雅黑" size="25px" weight="700" font-style="italic" opacity="1" y="515.2805346780355" transform="rotate(0)"><tspan id="SvgjsTspan1186" dy="31" x="1019.2470855650612"><tspan id="SvgjsTspan1187" style="text-decoration:underline;">预测</tspan></tspan></text></g></svg>