<svg id="SvgjsSvg1188" width="1180.4375" height="636" xmlns="http://www.w3.org/2000/svg" version="1.1" xmlns:xlink="http://www.w3.org/1999/xlink" xmlns:svgjs="http://svgjs.com/svgjs"><defs id="SvgjsDefs1189"><marker id="SvgjsMarker1223" markerWidth="14" markerHeight="10" refX="10" refY="5" viewBox="0 0 14 10" orient="auto" markerUnits="userSpaceOnUse" stroke-dasharray="0,0"><path id="SvgjsPath1224" d="M0,0 L14,5 L0,10 L0,0" fill="#323232" stroke="#323232" stroke-width="1"></path></marker><marker id="SvgjsMarker1227" markerWidth="14" markerHeight="10" refX="10" refY="5" viewBox="0 0 14 10" orient="auto" markerUnits="userSpaceOnUse" stroke-dasharray="0,0"><path id="SvgjsPath1228" d="M0,0 L14,5 L0,10 L0,0" fill="#323232" stroke="#323232" stroke-width="1"></path></marker><marker id="SvgjsMarker1231" markerWidth="14" markerHeight="10" refX="10" refY="5" viewBox="0 0 14 10" orient="auto" markerUnits="userSpaceOnUse" stroke-dasharray="0,0"><path id="SvgjsPath1232" d="M0,0 L14,5 L0,10 L0,0" fill="#323232" stroke="#323232" stroke-width="1"></path></marker><marker id="SvgjsMarker1235" markerWidth="14" markerHeight="10" refX="10" refY="5" viewBox="0 0 14 10" orient="auto" markerUnits="userSpaceOnUse" stroke-dasharray="0,0"><path id="SvgjsPath1236" d="M0,0 L14,5 L0,10 L0,0" fill="#323232" stroke="#323232" stroke-width="1"></path></marker><marker id="SvgjsMarker1245" markerWidth="14" markerHeight="10" refX="10" refY="5" viewBox="0 0 14 10" orient="auto" markerUnits="userSpaceOnUse" stroke-dasharray="0,0"><path id="SvgjsPath1246" d="M0,0 L14,5 L0,10 L0,0" fill="#323232" stroke="#323232" stroke-width="1"></path></marker><marker id="SvgjsMarker1255" markerWidth="14" markerHeight="10" refX="10" refY="5" viewBox="0 0 14 10" orient="auto" markerUnits="userSpaceOnUse" stroke-dasharray="0,0"><path id="SvgjsPath1256" d="M0,0 L14,5 L0,10 L0,0" fill="#323232" stroke="#323232" stroke-width="1"></path></marker></defs><rect id="svgbackgroundid" width="1180.4375" height="636" fill="#fff9c4"></rect><g id="SvgjsG1191" transform="translate(199.81621620950273,24.999994277953988)"><path id="SvgjsPath1192" d="M 0 4Q 0 0 4 0L 704.3125513966993 0Q 708.3125513966993 0 708.3125513966993 4L 708.3125513966993 583.0666561126709Q 708.3125513966993 587.0666561126709 704.3125513966993 587.0666561126709L 4 587.0666561126709Q 0 587.0666561126709 0 583.0666561126709Z" stroke="rgba(50,50,50,1)" stroke-width="2" fill-opacity="1" fill="#c8e6c9"></path><g id="SvgjsG1193"><text id="SvgjsText1194" font-family="微软雅黑" text-anchor="middle" font-size="25px" width="689px" fill="#323232" font-weight="700" align="middle" lineHeight="125%" anchor="middle" family="微软雅黑" size="25px" weight="700" font-style="italic" opacity="1" y="271.90832805633545" transform="rotate(0)"></text></g></g><g id="SvgjsG1195" transform="translate(684.1103555556919,378.1693810686901)"><path id="SvgjsPath1196" d="M 0 4Q 0 0 4 0L 125.49041158989016 0Q 129.49041158989016 0 129.49041158989016 4L 129.49041158989016 104.42919769891019Q 129.49041158989016 108.42919769891019 125.49041158989016 108.42919769891019L 4 108.42919769891019Q 0 108.42919769891019 0 104.42919769891019Z" stroke="rgba(50,50,50,1)" stroke-width="2" fill-opacity="1" fill="#ffffff"></path><g id="SvgjsG1197"><text id="SvgjsText1198" font-family="微软雅黑" text-anchor="middle" font-size="25px" width="110px" fill="#323232" font-weight="700" align="middle" lineHeight="125%" anchor="middle" family="微软雅黑" size="25px" weight="700" font-style="italic" opacity="1" y="32.58959884945509" transform="rotate(0)"><tspan id="SvgjsTspan1199" dy="31" x="65"><tspan id="SvgjsTspan1200" style="text-decoration:underline;">机器学习</tspan></tspan></text></g></g><g id="SvgjsG1201" transform="translate(684.1103555556919,122.58627220697332)"><path id="SvgjsPath1202" d="M 0 4Q 0 0 4 0L 125.49041158989016 0Q 129.49041158989016 0 129.49041158989016 4L 129.49041158989016 104.42919769891019Q 129.49041158989016 108.42919769891019 125.49041158989016 108.42919769891019L 4 108.42919769891019Q 0 108.42919769891019 0 104.42919769891019Z" stroke="rgba(50,50,50,1)" stroke-width="2" fill-opacity="1" fill="#ffffff"></path><g id="SvgjsG1203"><text id="SvgjsText1204" font-family="微软雅黑" text-anchor="middle" font-size="25px" width="110px" fill="#323232" font-weight="700" align="middle" lineHeight="125%" anchor="middle" family="微软雅黑" size="25px" weight="700" font-style="italic" opacity="1" y="32.58959884945509" transform="rotate(0)"><tspan id="SvgjsTspan1205" dy="31" x="65"><tspan id="SvgjsTspan1206" style="text-decoration:underline;">模型评估</tspan></tspan></text></g></g><g id="SvgjsG1207" transform="translate(325.4219154516962,122.58627220697332)"><path id="SvgjsPath1208" d="M 0 4Q 0 0 4 0L 125.49041158989016 0Q 129.49041158989016 0 129.49041158989016 4L 129.49041158989016 104.42919769891019Q 129.49041158989016 108.42919769891019 125.49041158989016 108.42919769891019L 4 108.42919769891019Q 0 108.42919769891019 0 104.42919769891019Z" stroke="rgba(50,50,50,1)" stroke-width="2" fill-opacity="1" fill="#ffffff"></path><g id="SvgjsG1209"><text id="SvgjsText1210" font-family="微软雅黑" text-anchor="middle" font-size="25px" width="110px" fill="#323232" font-weight="700" align="middle" lineHeight="125%" anchor="middle" family="微软雅黑" size="25px" weight="700" font-style="italic" opacity="1" y="17.089598849455093" transform="rotate(0)"><tspan id="SvgjsTspan1211" dy="31" x="65"><tspan id="SvgjsTspan1212" style="text-decoration:underline;">数据基本</tspan></tspan><tspan id="SvgjsTspan1213" dy="31" x="65"><tspan id="SvgjsTspan1214" style="text-decoration:underline;">处理</tspan></tspan></text></g></g><g id="SvgjsG1215" transform="translate(325.4219154516962,378.1693810686901)"><path id="SvgjsPath1216" d="M 0 4Q 0 0 4 0L 125.49041158989016 0Q 129.49041158989016 0 129.49041158989016 4L 129.49041158989016 104.42919769891019Q 129.49041158989016 108.42919769891019 125.49041158989016 108.42919769891019L 4 108.42919769891019Q 0 108.42919769891019 0 104.42919769891019Z" stroke="rgba(50,50,50,1)" stroke-width="2" fill-opacity="1" fill="#ffffff"></path><g id="SvgjsG1217"><text id="SvgjsText1218" font-family="微软雅黑" text-anchor="middle" font-size="25px" width="110px" fill="#323232" font-weight="700" align="middle" lineHeight="125%" anchor="middle" family="微软雅黑" size="25px" weight="700" font-style="italic" opacity="1" y="32.58959884945509" transform="rotate(0)"><tspan id="SvgjsTspan1219" dy="31" x="65"><tspan id="SvgjsTspan1220" style="text-decoration:underline;">特征工程</tspan></tspan></text></g></g><g id="SvgjsG1221"><path id="SvgjsPath1222" d="M455.91232704158654 432.38397991814475L569.5113412986391 432.38397991814475L569.5113412986391 432.38397991814475L680.5103555556918 432.38397991814475" stroke="#323232" stroke-width="2" fill="none" marker-end="url(#SvgjsMarker1223)"></path></g><g id="SvgjsG1225"><path id="SvgjsPath1226" d="M748.8555613506371 377.1693810686901L748.8555613506371 304.5924254872868L748.8555613506371 304.5924254872868L748.8555613506371 234.61546990588374" stroke="#323232" stroke-width="2" fill="none" marker-end="url(#SvgjsMarker1227)"></path></g><g id="SvgjsG1229"><path id="SvgjsPath1230" d="M683.1103555556919 176.80087105642866L569.5113412986391 176.80087105642866L569.5113412986391 176.80087105642866L458.51232704158656 176.80087105642866" stroke="#323232" stroke-width="2" fill="none" marker-end="url(#SvgjsMarker1231)"></path></g><g id="SvgjsG1233"><path id="SvgjsPath1234" d="M390.1671212466412 232.01546990588372L390.1671212466412 304.5924254872868L390.1671212466412 304.5924254872868L390.1671212466412 374.56938106869006" stroke="#323232" stroke-width="2" fill="none" marker-end="url(#SvgjsMarker1235)"></path></g><g id="SvgjsG1237" transform="translate(25.004160563151068,277.4851260625596)"><path id="SvgjsPath1238" d="M 19.423561738483524 0L 111.4188786400718 0C 134.41901148529516 0 134.41901148529516 108.42919769891019 111.4188786400718 108.42919769891019L 19.423561738483524 108.42919769891019C -6.474520579494508 108.42919769891019 -6.474520579494508 0 19.423561738483524 0ZM 111.4188786400718 0C 88.82946245279884 0 88.82946245279884 108.42919769891019 111.4188786400718 108.42919769891019C 88.82946245279884 108.42919769891019 88.82946245279884 0 111.4188786400718 0" stroke="rgba(50,50,50,1)" stroke-width="2" fill-opacity="1" fill="#ffffff"></path><g id="SvgjsG1239"><text id="SvgjsText1240" font-family="微软雅黑" text-anchor="middle" font-size="25px" width="104px" fill="#323232" font-weight="700" align="middle" lineHeight="125%" anchor="middle" family="微软雅黑" size="25px" weight="700" font-style="italic" opacity="1" y="32.58959884945509" transform="rotate(0)"><tspan id="SvgjsTspan1241" dy="31" x="52"><tspan id="SvgjsTspan1242" style="text-decoration:underline;">用户数据</tspan></tspan></text></g></g><g id="SvgjsG1243"><path id="SvgjsPath1244" d="M155.4945721530412 331.6997249120145L177.15539418127196 331.6997249120145L177.15539418127196 318.53332233428966L196.21621620950273 318.53332233428966" stroke="#323232" stroke-width="2" fill="none" marker-end="url(#SvgjsMarker1245)"></path></g><g id="SvgjsG1247" transform="translate(1025.4470884101097,264.3187234848347)"><path id="SvgjsPath1248" d="M 107.90867632490847 0L 21.581735264981692 0L 0 54.21459884945509L 21.581735264981692 108.42919769891019L 107.90867632490847 108.42919769891019Q 129.49041158989016 108.42919769891019 129.49041158989016 54.21459884945509Q 129.49041158989016 0 107.90867632490847 0Z" stroke="rgba(50,50,50,1)" stroke-width="2" fill-opacity="1" fill="#ffffff"></path><g id="SvgjsG1249"><text id="SvgjsText1250" font-family="微软雅黑" text-anchor="middle" font-size="25px" width="110px" fill="#323232" font-weight="700" align="middle" lineHeight="125%" anchor="middle" family="微软雅黑" size="25px" weight="700" font-style="italic" opacity="1" y="32.58959884945509" transform="rotate(0)"><tspan id="SvgjsTspan1251" dy="31" x="65"><tspan id="SvgjsTspan1252" style="text-decoration:underline;">在线服务</tspan></tspan></text></g></g><g id="SvgjsG1253"><path id="SvgjsPath1254" d="M909.1287676062022 318.53332233428966L966.7879280081559 318.53332233428966L966.7879280081559 318.53332233428966L1021.8470884101098 318.53332233428966" stroke="#323232" stroke-width="2" fill="none" marker-end="url(#SvgjsMarker1255)"></path></g></svg>